<svg version="1.1" xmlns="http://www.w3.org/2000/svg" xmlns:xlink="http://www.w3.org/1999/xlink" x="0px" y="0px"
	 width="455.35px" height="135px" viewBox="0 0 455.35 135" enable-background="new 0 0 455.35 135" xml:space="preserve">
<g id="Layer_2">
	<g>
		<path d="M102.499,72.261c0,10.106-1.574,18.923-4.716,26.445c-3.145,7.524-7.608,13.757-13.391,18.697
			c-5.784,4.943-12.831,8.648-21.139,11.117c-8.311,2.469-17.631,3.706-27.961,3.706c-4.716,0-10.22-0.198-16.507-0.59
			c-6.291-0.395-12.465-1.205-18.529-2.442V15.496c6.063-1.121,12.38-1.879,18.95-2.273c6.568-0.393,12.212-0.589,16.928-0.589
			c9.993,0,19.06,1.123,27.204,3.368c8.14,2.249,15.13,5.785,20.971,10.612c5.837,4.829,10.331,11.006,13.475,18.528
			C100.924,52.667,102.499,61.707,102.499,72.261z M26.532,109.318c1.234,0.113,2.666,0.197,4.294,0.253
			c1.626,0.058,3.564,0.084,5.812,0.084c13.138,0,22.879-3.312,29.225-9.938c6.343-6.624,9.516-15.775,9.516-27.456
			c0-12.238-3.031-21.502-9.095-27.793c-6.064-6.287-15.666-9.432-28.803-9.432c-1.798,0-3.65,0.029-5.558,0.084
			c-1.911,0.057-3.706,0.197-5.39,0.421V109.318z"/>
		<path d="M105.867,87.083c0-7.858,1.206-14.739,3.622-20.633c2.414-5.896,5.584-10.807,9.517-14.739
			c3.93-3.93,8.449-6.906,13.56-8.927c5.108-2.021,10.36-3.032,15.75-3.032c12.575,0,22.513,3.848,29.814,11.538
			c7.298,7.693,10.949,19.008,10.949,33.941c0,1.461-0.059,3.062-0.168,4.801c-0.114,1.743-0.227,3.284-0.338,4.632h-56.932
			c0.56,5.167,2.973,9.265,7.242,12.297c4.267,3.032,9.994,4.548,17.182,4.548c4.603,0,9.121-0.422,13.558-1.264
			c4.435-0.842,8.057-1.879,10.865-3.116l3.37,20.381c-1.348,0.675-3.146,1.349-5.391,2.021c-2.247,0.674-4.745,1.264-7.495,1.769
			c-2.752,0.505-5.7,0.927-8.843,1.263c-3.146,0.337-6.291,0.506-9.434,0.506c-7.975,0-14.906-1.179-20.802-3.538
			c-5.896-2.357-10.78-5.585-14.655-9.685c-3.874-4.099-6.737-8.954-8.591-14.57C106.794,99.662,105.867,93.598,105.867,87.083z
			 M164.821,77.482c-0.113-2.132-0.479-4.21-1.095-6.232c-0.619-2.021-1.574-3.816-2.863-5.39c-1.293-1.571-2.921-2.864-4.886-3.874
			c-1.965-1.012-4.409-1.517-7.326-1.517c-2.81,0-5.222,0.479-7.244,1.432c-2.021,0.956-3.705,2.219-5.053,3.79
			c-1.347,1.574-2.386,3.398-3.116,5.475c-0.731,2.079-1.264,4.184-1.6,6.316H164.821z"/>
		<path d="M220.028,130.709c-5.749-11.227-11.583-24.366-17.5-39.415c-5.917-15.046-11.525-31.441-16.82-49.185h26.614
			c1.126,4.379,2.453,9.125,3.977,14.232c1.522,5.113,3.101,10.275,4.737,15.498c1.634,5.221,3.269,10.305,4.906,15.244
			c1.637,4.942,3.246,9.433,4.824,13.476c1.464-4.043,3.042-8.533,4.732-13.476c1.69-4.939,3.352-10.022,4.987-15.244
			c1.634-5.222,3.213-10.385,4.735-15.498c1.521-5.107,2.848-9.853,3.974-14.232h25.956c-5.296,17.744-10.899,34.138-16.81,49.185
			c-5.911,15.049-11.74,28.188-17.484,39.415H220.028z"/>
		<path d="M300.92,73.926c2.468-2.679,5.018-5.469,7.656-8.372c2.634-2.903,5.188-5.777,7.656-8.625
			c2.469-2.848,4.795-5.553,6.983-8.122c2.186-2.566,4.066-4.798,5.637-6.699h29.843c-5.953,6.837-11.764,13.365-17.433,19.582
			c-5.672,6.218-11.875,12.632-18.612,19.244c3.368,3.037,6.848,6.667,10.443,10.883c3.593,4.219,7.074,8.577,10.443,13.078
			c3.369,4.501,6.457,8.998,9.264,13.496c2.806,4.501,5.165,8.606,7.075,12.317h-28.858c-1.795-2.926-3.84-6.161-6.138-9.708
			c-2.297-3.546-4.735-7.091-7.314-10.636c-2.579-3.545-5.295-6.951-8.153-10.215c-2.858-3.263-5.69-6.021-8.49-8.274v38.833
			h-25.098V4.042L300.92,0V73.926z"/>
		<path d="M388.171,16.507c0,4.606-1.49,8.227-4.464,10.865c-2.976,2.64-6.484,3.958-10.527,3.958
			c-4.042,0-7.554-1.319-10.527-3.958c-2.977-2.638-4.464-6.259-4.464-10.865c0-4.603,1.487-8.224,4.464-10.864
			c2.973-2.638,6.484-3.958,10.527-3.958c4.043,0,7.551,1.32,10.527,3.958C386.682,8.283,388.171,11.904,388.171,16.507z
			 M385.813,130.709h-25.098v-88.6h25.098V130.709z"/>
		<path d="M395.917,20.044l25.098-4.043V42.11h30.15v20.887h-30.15v31.162c0,5.28,0.925,9.491,2.779,12.633
			c1.853,3.146,5.584,4.717,11.2,4.717c2.696,0,5.475-0.253,8.339-0.758c2.863-0.506,5.474-1.206,7.832-2.105l3.538,19.539
			c-3.032,1.236-6.401,2.302-10.106,3.201c-3.707,0.896-8.253,1.347-13.644,1.347c-6.851,0-12.523-0.926-17.013-2.779
			c-4.492-1.853-8.084-4.435-10.779-7.749c-2.696-3.311-4.578-7.327-5.644-12.043c-1.068-4.716-1.599-9.938-1.599-15.665V20.044z"/>
	</g>
</g>
</svg>
