<svg version="1.1" id="Layer_1" xmlns="http://www.w3.org/2000/svg" xmlns:xlink="http://www.w3.org/1999/xlink" x="0px" y="0px"
	 width="512px" height="512px" viewBox="0 0 512 512" enable-background="new 0 0 512 512" xml:space="preserve">
<path fill="#FFFFFF" d="M341.672,177.105c2.48-5.159,4.365-10.317,5.555-15.476l-148.114,0.397H183.24l3.373-15.476l4.563-20.833
	l0.099-0.298c5.953-24.107,17.758-43.154,33.333-56.448c16.368-13.889,36.805-21.33,59.125-21.33h0.596h118.75
	c16.27,0,34.225,2.282,50.893,8.333c15.971,5.853,30.654,15.178,41.467,29.266C506.254,99.427,513,117.979,513,142.185
	c0,19.147-4.266,41.964-14.188,69.047l-0.197,0.496l-38.195,92.956l-3.273,7.937h-8.531H295.441h-20.535l9.127-18.452
	L341.672,177.105L341.672,177.105z M348.318,136.133c-1.588-10.913-5.654-21.23-11.408-30.258
	c-7.541-11.706-17.957-21.23-29.564-26.984c-7.439-3.671-15.377-5.754-23.312-5.754h-0.396c-16.27,0-30.953,5.258-42.56,15.178
	c-11.508,9.822-20.337,24.306-25,42.857l0,0l-1.189,5.258L348.318,136.133L348.318,136.133z M374.607,145.955
	c0,13.889-3.076,28.273-10.02,42.361l-48.611,98.71h124.008l34.721-84.523c8.83-24.107,12.6-43.948,12.6-60.417
	c0-18.155-4.662-31.547-12.201-41.468c-7.541-9.821-18.156-16.468-29.861-20.833c-13.393-4.96-28.473-6.746-42.162-6.746h-60.219
	c5.854,5.655,11.111,12.004,15.576,18.948C368.457,107.661,374.607,126.312,374.607,145.955L374.607,145.955z M474.705,202.502
	L474.705,202.502L474.705,202.502L474.705,202.502z"/>
<path fill="#FFFFFF" d="M172.03,365.695c-2.48,5.158-4.365,10.316-5.556,15.476l148.114-0.396h15.873l-3.373,15.575l-4.562,20.833
	l-0.1,0.298c-5.953,24.106-17.758,43.154-33.334,56.447c-16.369,13.89-36.706,21.33-59.027,21.33h-0.596H110.721
	c-16.27,0-34.226-2.282-50.893-8.334c-15.972-5.853-30.654-15.178-41.468-29.266c-10.813-14.187-17.56-32.737-17.56-56.943
	c0-19.146,4.266-41.965,14.187-69.047l0.198-0.496l38.194-92.956l3.274-7.937h8.531h153.074h20.536l-9.028,18.452L172.03,365.695
	L172.03,365.695z M165.383,406.667c1.587,10.912,5.655,21.229,11.409,30.258c7.54,11.706,17.956,21.229,29.563,26.983
	c7.44,3.671,15.377,5.754,23.313,5.754h0.396c16.27,0,30.953-5.258,42.56-15.178c11.508-9.822,20.336-24.306,24.998-42.956l0,0
	l1.191-5.259L165.383,406.667L165.383,406.667z M139.093,396.846c0-13.889,3.076-28.273,10.02-42.361l48.611-98.709H73.717
	l-34.722,84.524c-8.83,24.106-12.599,43.947-12.599,60.416c0,18.154,4.663,31.547,12.202,41.468
	c7.54,9.821,18.155,16.468,29.861,20.833c13.492,4.96,28.472,6.746,42.163,6.746h60.218c-5.853-5.655-11.111-12.004-15.575-18.948
	C145.244,435.04,139.093,416.389,139.093,396.846L139.093,396.846z M38.995,340.299L38.995,340.299L38.995,340.299L38.995,340.299z"
	/>
</svg>
