<?xml version="1.0" encoding="utf-8"?>
<!-- Generator: Adobe Illustrator 16.0.0, SVG Export Plug-In . SVG Version: 6.00 Build 0)  -->
<!DOCTYPE svg PUBLIC "-//W3C//DTD SVG 1.1//EN" "http://www.w3.org/Graphics/SVG/1.1/DTD/svg11.dtd">
<svg fill="#f0f0f0" version="1.1" id="Layer_1" xmlns="http://www.w3.org/2000/svg" xmlns:xlink="http://www.w3.org/1999/xlink" x="0px" y="0px"
	 width="512px" height="274px" viewBox="0 0 512 274" enable-background="new 0 0 512 274" xml:space="preserve">
<g>
	<path d="M130.75,44.696V69.95H81.402v135.299H51.979V69.95H2.632V44.696H130.75z"/>
	<path d="M245.432,84.082c-12.489,46.027-26.983,87.729-43.476,125.105c-3.092,6.95-6.263,12.895-9.51,17.839
		c-3.248,4.941-6.882,9.036-10.899,12.278c-4.022,3.243-8.507,5.597-13.452,7.066c-4.947,1.467-10.668,2.201-17.162,2.201
		c-4.33,0-8.623-0.463-12.873-1.389c-4.253-0.927-7.461-1.934-9.625-3.012l5.097-22.474c5.586,2.162,11.094,3.244,16.524,3.244
		c7.292,0,12.992-1.738,17.105-5.213c4.112-3.476,7.718-8.844,10.824-16.102c-8.844-16.989-17.336-35.522-25.481-55.603
		c-8.145-20.076-15.396-41.391-21.753-63.942h29.887c1.549,6.486,3.445,13.517,5.697,21.082c2.249,7.57,4.692,15.254,7.328,23.052
		c2.635,7.801,5.422,15.563,8.37,23.283c2.946,7.726,5.892,14.908,8.839,21.547c4.919-13.746,9.531-28.381,13.838-43.903
		c4.305-15.523,8.226-30.542,11.762-45.061h28.96V84.082z"/>
	<path d="M364.28,144.781c0,9.267-1.197,17.764-3.591,25.484c-2.396,7.725-5.833,14.363-10.31,19.924
		c-4.482,5.56-10.079,9.887-16.798,12.975c-6.718,3.087-14.327,4.633-22.819,4.633c-5.716,0-10.971-0.694-15.755-2.084
		c-4.789-1.391-8.729-2.932-11.814-4.634v47.03H255.16V88.02c5.713-1.542,12.742-3.012,21.083-4.4
		c8.34-1.391,17.144-2.087,26.411-2.087c9.574,0,18.146,1.47,25.716,4.402c7.565,2.937,14.017,7.146,19.346,12.627
		c5.327,5.483,9.419,12.126,12.278,19.924C362.851,126.287,364.28,135.05,364.28,144.781z M335.552,145.244
		c0-12.511-2.817-22.241-8.456-29.192c-5.639-6.949-14.71-10.424-27.223-10.424c-2.628,0-5.367,0.117-8.225,0.347
		c-2.859,0.232-5.676,0.735-8.455,1.507v69.271c2.47,1.702,5.752,3.284,9.846,4.75c4.092,1.469,8.456,2.201,13.09,2.201
		c10.193,0,17.645-3.476,22.357-10.426C333.195,166.326,335.552,156.984,335.552,145.244z"/>
	<path d="M374.938,145.244c0-10.657,1.579-20.001,4.746-28.033c3.165-8.03,7.376-14.712,12.631-20.04
		c5.246-5.33,11.271-9.344,18.067-12.048c6.796-2.701,13.744-4.054,20.854-4.054c16.679,0,29.69,5.175,39.036,15.521
		c9.343,10.35,14.019,25.795,14.019,46.335c0,1.546-0.041,3.284-0.117,5.213c-0.081,1.933-0.197,3.67-0.349,5.213h-79.928
		c0.771,9.73,4.207,17.259,10.31,22.588c6.1,5.328,14.942,7.993,26.527,7.993c6.795,0,13.01-0.616,18.649-1.854
		c5.635-1.233,10.077-2.548,13.32-3.937l3.707,22.936c-1.545,0.774-3.669,1.585-6.371,2.432c-2.703,0.852-5.792,1.622-9.268,2.317
		c-3.477,0.695-7.222,1.274-11.236,1.738c-4.018,0.462-8.107,0.694-12.277,0.694c-10.658,0-19.926-1.585-27.803-4.75
		c-7.876-3.164-14.364-7.565-19.461-13.206c-5.097-5.636-8.883-12.278-11.351-19.924
		C376.171,162.736,374.938,154.359,374.938,145.244z M456.253,132.733c0-3.859-0.54-7.529-1.621-11.004
		c-1.081-3.476-2.662-6.488-4.749-9.036c-2.085-2.548-4.634-4.553-7.645-6.024c-3.014-1.465-6.604-2.199-10.771-2.199
		c-4.327,0-8.11,0.812-11.354,2.432c-3.243,1.621-5.989,3.747-8.225,6.371c-2.242,2.628-3.978,5.64-5.213,9.036
		c-1.238,3.398-2.087,6.874-2.549,10.425L456.253,132.733L456.253,132.733z"/>
</g>
<rect x="489" y="2" width="20" height="272"/>
</svg>
